<svg width="33" height="33" viewBox="0 0 33 33" fill="none" xmlns="http://www.w3.org/2000/svg">
<path d="M21.6562 16.5C21.6562 17.8675 21.113 19.179 20.146 20.146C19.179 21.113 17.8675 21.6562 16.5 21.6562C15.1325 21.6562 13.821 21.113 12.854 20.146C11.887 19.179 11.3437 17.8675 11.3437 16.5C11.3437 16.2061 11.3747 15.9191 11.428 15.6406H9.625V22.5105C9.625 22.9883 10.0117 23.375 10.4895 23.375H22.5122C22.7412 23.3745 22.9606 23.2833 23.1224 23.1212C23.2842 22.9591 23.375 22.7395 23.375 22.5105V15.6406H21.572C21.6253 15.9191 21.6562 16.2061 21.6562 16.5ZM16.5 19.9375C16.9515 19.9374 17.3986 19.8483 17.8157 19.6754C18.2329 19.5025 18.6118 19.2492 18.931 18.9298C19.2502 18.6105 19.5034 18.2314 19.6761 17.8141C19.8488 17.3969 19.9376 16.9498 19.9375 16.4983C19.9374 16.0467 19.8483 15.5997 19.6754 15.1825C19.5025 14.7654 19.2492 14.3864 18.9298 14.0672C18.6105 13.748 18.2314 13.4949 17.8141 13.3222C17.3969 13.1495 16.9498 13.0607 16.4983 13.0608C15.5864 13.061 14.7119 13.4235 14.0672 14.0685C13.4226 14.7134 13.0606 15.5881 13.0608 16.5C13.061 17.4119 13.4235 18.2864 14.0685 18.931C14.7134 19.5757 15.5881 19.9377 16.5 19.9375ZM20.625 12.8906H22.6858C22.8227 12.8906 22.954 12.8364 23.051 12.7397C23.148 12.6431 23.2027 12.5119 23.2031 12.375V10.3142C23.2031 10.177 23.1486 10.0454 23.0516 9.9484C22.9546 9.85138 22.823 9.79687 22.6858 9.79687H20.625C20.4878 9.79687 20.3562 9.85138 20.2592 9.9484C20.1622 10.0454 20.1077 10.177 20.1077 10.3142V12.375C20.1094 12.6586 20.3414 12.8906 20.625 12.8906ZM16.5 0C12.1239 0 7.92709 1.73839 4.83274 4.83274C1.73839 7.92709 0 12.1239 0 16.5C0 20.8761 1.73839 25.0729 4.83274 28.1673C7.92709 31.2616 12.1239 33 16.5 33C18.6668 33 20.8124 32.5732 22.8143 31.744C24.8161 30.9148 26.6351 29.6994 28.1673 28.1673C29.6994 26.6351 30.9148 24.8161 31.744 22.8143C32.5732 20.8124 33 18.6668 33 16.5C33 14.3332 32.5732 12.1876 31.744 10.1857C30.9148 8.18385 29.6994 6.3649 28.1673 4.83274C26.6351 3.30057 24.8161 2.08519 22.8143 1.25599C20.8124 0.426785 18.6668 0 16.5 0ZM25.0937 23.1842C25.0937 24.2344 24.2344 25.0937 23.1842 25.0937H9.81578C8.76562 25.0937 7.90625 24.2344 7.90625 23.1842V9.81578C7.90625 8.76562 8.76562 7.90625 9.81578 7.90625H23.1842C24.2344 7.90625 25.0937 8.76562 25.0937 9.81578V23.1842Z" fill="black"/>
</svg>
