<svg width="36" height="33" viewBox="0 0 36 33" fill="none" xmlns="http://www.w3.org/2000/svg">
<path d="M18 0C8.05875 0 0 7.38719 0 16.5C0 25.6128 8.05875 33 18 33C27.9412 33 36 25.6128 36 16.5C36 7.38719 27.9412 0 18 0ZM25.3219 13.5162C25.3294 13.6572 25.3312 13.7981 25.3312 13.9356C25.3312 18.2325 21.7669 23.1842 15.2456 23.1842C13.3187 23.1872 11.4318 22.6798 9.81187 21.7233C10.0875 21.7542 10.3706 21.7662 10.6575 21.7662C12.3187 21.7662 13.8469 21.2489 15.06 20.3758C14.3207 20.3625 13.6044 20.1381 13.0108 19.7339C12.4173 19.3296 11.9761 18.7658 11.7487 18.1208C12.2797 18.2133 12.8266 18.1939 13.3481 18.0641C12.5457 17.9153 11.8241 17.5168 11.3057 16.936C10.7873 16.3552 10.504 15.6279 10.5037 14.8775V14.838C10.9819 15.0803 11.5294 15.2281 12.1106 15.2453C11.3584 14.7863 10.8258 14.0812 10.622 13.2741C10.4181 12.4671 10.5582 11.6192 11.0137 10.9037C11.9043 11.9075 13.0149 12.7286 14.2736 13.314C15.5323 13.8993 16.911 14.2358 18.3206 14.3017C18.1414 13.6044 18.2185 12.8724 18.54 12.2195C18.8615 11.5665 19.4093 11.0292 20.0983 10.6911C20.7872 10.353 21.5788 10.233 22.3498 10.3497C23.1208 10.4665 23.8282 10.8136 24.3619 11.3369C25.1553 11.193 25.9162 10.9262 26.6119 10.548C26.3474 11.301 25.7938 11.9405 25.0537 12.3475C25.7566 12.2699 26.4429 12.0967 27.09 11.8336C26.6147 12.4865 26.0159 13.0564 25.3219 13.5162Z" fill="black"/>
</svg>
